<svg xmlns="http://www.w3.org/2000/svg" viewBox="0 0 400 400" width="400" height="400">
  <defs>
    <radialGradient id="bg-turq" cx="50%" cy="50%" r="50%">
      <stop offset="0%" stop-color="#ccfbf1"/>
      <stop offset="100%" stop-color="#99f6e4"/>
    </radialGradient>
    <filter id="glow-turq">
      <feGaussianBlur stdDeviation="3" result="blur"/>
      <feMerge>
        <feMergeNode in="blur"/>
        <feMergeNode in="SourceGraphic"/>
      </feMerge>
    </filter>
  </defs>

  <!-- Circular background -->
  <circle cx="200" cy="200" r="190" fill="url(#bg-turq)" stroke="#14b8a6" stroke-width="3" opacity="0.9"/>

  <!-- Sparkle dots in background -->
  <circle cx="80" cy="100" r="3" fill="#14b8a6" opacity="0.4"/>
  <circle cx="320" cy="90" r="2.5" fill="#14b8a6" opacity="0.3"/>
  <circle cx="100" cy="300" r="2" fill="#14b8a6" opacity="0.35"/>
  <circle cx="310" cy="280" r="3" fill="#14b8a6" opacity="0.3"/>
  <circle cx="150" cy="70" r="2" fill="#14b8a6" opacity="0.25"/>
  <circle cx="260" cy="330" r="2.5" fill="#14b8a6" opacity="0.3"/>

  <!-- Left wing -->
  <ellipse cx="135" cy="190" rx="50" ry="70" fill="#14b8a6" opacity="0.3" transform="rotate(-15, 135, 190)"/>
  <ellipse cx="140" cy="195" rx="35" ry="50" fill="#ccfbf1" opacity="0.5" transform="rotate(-15, 140, 195)"/>
  <ellipse cx="120" cy="240" rx="30" ry="45" fill="#14b8a6" opacity="0.25" transform="rotate(-25, 120, 240)"/>

  <!-- Right wing -->
  <ellipse cx="265" cy="190" rx="50" ry="70" fill="#14b8a6" opacity="0.3" transform="rotate(15, 265, 190)"/>
  <ellipse cx="260" cy="195" rx="35" ry="50" fill="#ccfbf1" opacity="0.5" transform="rotate(15, 260, 195)"/>
  <ellipse cx="280" cy="240" rx="30" ry="45" fill="#14b8a6" opacity="0.25" transform="rotate(25, 280, 240)"/>

  <!-- Body / Dress -->
  <polygon points="200,210 155,330 245,330" fill="#14b8a6"/>
  <polygon points="200,210 165,330 235,330" fill="#0d9488"/>
  <!-- Dress details -->
  <line x1="200" y1="220" x2="175" y2="330" stroke="#ccfbf1" stroke-width="1" opacity="0.4"/>
  <line x1="200" y1="220" x2="225" y2="330" stroke="#ccfbf1" stroke-width="1" opacity="0.4"/>
  <!-- Dress bottom scallops -->
  <ellipse cx="170" cy="330" rx="15" ry="8" fill="#14b8a6"/>
  <ellipse cx="200" cy="332" rx="15" ry="8" fill="#14b8a6"/>
  <ellipse cx="230" cy="330" rx="15" ry="8" fill="#14b8a6"/>

  <!-- Neck -->
  <rect x="192" y="195" width="16" height="20" rx="5" fill="#fde8d8"/>

  <!-- Head -->
  <circle cx="200" cy="170" r="45" fill="#fde8d8"/>
  <!-- Cheeks -->
  <circle cx="178" cy="180" r="8" fill="#fca5a5" opacity="0.3"/>
  <circle cx="222" cy="180" r="8" fill="#fca5a5" opacity="0.3"/>

  <!-- Eyes -->
  <ellipse cx="185" cy="168" rx="6" ry="7" fill="#1e3a5f"/>
  <circle cx="183" cy="166" r="2.5" fill="white"/>
  <ellipse cx="215" cy="168" rx="6" ry="7" fill="#1e3a5f"/>
  <circle cx="213" cy="166" r="2.5" fill="white"/>

  <!-- Smile -->
  <path d="M190,185 Q200,195 210,185" stroke="#d97706" stroke-width="2" fill="none" stroke-linecap="round"/>

  <!-- Hair -->
  <path d="M155,160 Q155,120 180,110 Q200,100 220,110 Q245,120 245,160" fill="#14b8a6" opacity="0.0"/>
  <ellipse cx="200" cy="130" rx="48" ry="20" fill="#5eead4" opacity="0.8"/>
  <path d="M155,150 Q150,120 175,108 Q200,95 225,108 Q250,120 245,150" fill="#5eead4"/>
  <!-- Hair side strands -->
  <path d="M155,155 Q145,170 148,190" stroke="#5eead4" stroke-width="8" fill="none" stroke-linecap="round"/>
  <path d="M245,155 Q255,170 252,190" stroke="#5eead4" stroke-width="8" fill="none" stroke-linecap="round"/>

  <!-- Crown / tiara -->
  <path d="M172,130 L178,115 L188,128 L200,108 L212,128 L222,115 L228,130" stroke="#f59e0b" stroke-width="2.5" fill="none" stroke-linecap="round" stroke-linejoin="round"/>
  <circle cx="200" cy="108" r="3" fill="#f59e0b"/>

  <!-- Wand in right hand -->
  <line x1="250" y1="250" x2="290" y2="140" stroke="#f59e0b" stroke-width="3.5" stroke-linecap="round"/>
  <!-- Star on wand tip -->
  <g transform="translate(290, 130)" filter="url(#glow-turq)">
    <polygon points="0,-18 5,-6 18,-6 8,3 12,16 0,9 -12,16 -8,3 -18,-6 -5,-6" fill="#f59e0b"/>
    <polygon points="0,-12 3.5,-4 12,-4 5.5,2 8,11 0,6 -8,11 -5.5,2 -12,-4 -3.5,-4" fill="#fef3c7"/>
  </g>

  <!-- Small sparkles around wand -->
  <g opacity="0.7">
    <polygon points="305,155 307,150 309,155 307,160" fill="#f59e0b"/>
    <polygon points="275,110 277,105 279,110 277,115" fill="#14b8a6"/>
    <polygon points="310,125 312,121 314,125 312,129" fill="#f59e0b"/>
    <circle cx="265" cy="125" r="2" fill="#ccfbf1"/>
    <circle cx="300" cy="145" r="1.5" fill="#ccfbf1"/>
  </g>

  <!-- Left arm -->
  <path d="M175,230 Q160,245 155,260" stroke="#fde8d8" stroke-width="10" fill="none" stroke-linecap="round"/>

  <!-- Right arm (holding wand) -->
  <path d="M225,230 Q240,240 250,250" stroke="#fde8d8" stroke-width="10" fill="none" stroke-linecap="round"/>
</svg>
