<svg xmlns="http://www.w3.org/2000/svg" viewBox="0 0 600 600" width="600" height="600">
  <defs>
    <linearGradient id="bg" x1="0" y1="0" x2="0" y2="1">
      <stop offset="0%" stop-color="#fdf4ff"/>
      <stop offset="60%" stop-color="#fffef7"/>
      <stop offset="100%" stop-color="#ecfdf5"/>
    </linearGradient>
  </defs>

  <!-- Background -->
  <rect width="600" height="600" fill="url(#bg)"/>

  <!-- Large decorative arch/frame -->
  <path d="M80,580 L80,200 Q80,80 300,80 Q520,80 520,200 L520,580" fill="none" stroke="#a855f7" stroke-width="6" opacity="0.2"/>
  <path d="M100,580 L100,210 Q100,100 300,100 Q500,100 500,210 L500,580" fill="none" stroke="#ec4899" stroke-width="4" opacity="0.15"/>

  <!-- Top banner garland 1 -->
  <path d="M30,120 Q80,170 130,120 Q180,170 230,120 Q280,170 330,120 Q380,170 430,120 Q480,170 530,120 Q555,145 570,120" fill="none" stroke="#ec4899" stroke-width="3.5" opacity="0.55"/>
  <!-- Banner triangles on garland 1 -->
  <polygon points="60,128 80,128 70,155" fill="#ec4899" opacity="0.55"/>
  <polygon points="110,128 130,128 120,155" fill="#14b8a6" opacity="0.55"/>
  <polygon points="160,128 180,128 170,155" fill="#f59e0b" opacity="0.55"/>
  <polygon points="210,128 230,128 220,155" fill="#a855f7" opacity="0.55"/>
  <polygon points="260,128 280,128 270,155" fill="#ec4899" opacity="0.55"/>
  <polygon points="310,128 330,128 320,155" fill="#14b8a6" opacity="0.55"/>
  <polygon points="360,128 380,128 370,155" fill="#f59e0b" opacity="0.55"/>
  <polygon points="410,128 430,128 420,155" fill="#a855f7" opacity="0.55"/>
  <polygon points="460,128 480,128 470,155" fill="#ec4899" opacity="0.55"/>
  <polygon points="510,128 530,128 520,155" fill="#14b8a6" opacity="0.55"/>

  <!-- Top banner garland 2 -->
  <path d="M50,60 Q110,95 170,60 Q230,95 290,60 Q350,95 410,60 Q470,95 530,60 Q555,75 560,60" fill="none" stroke="#f59e0b" stroke-width="3" opacity="0.45"/>
  <!-- Semicircle bunting -->
  <path d="M70,60 A30,25 0 0,1 130,60" fill="#f59e0b" opacity="0.3"/>
  <path d="M150,60 A30,25 0 0,1 210,60" fill="#a855f7" opacity="0.3"/>
  <path d="M230,60 A30,25 0 0,1 290,60" fill="#ec4899" opacity="0.3"/>
  <path d="M310,60 A30,25 0 0,1 370,60" fill="#14b8a6" opacity="0.3"/>
  <path d="M390,60 A30,25 0 0,1 450,60" fill="#f59e0b" opacity="0.3"/>
  <path d="M470,60 A30,25 0 0,1 530,60" fill="#a855f7" opacity="0.3"/>

  <!-- Large star center -->
  <polygon points="300,190 312,225 350,225 320,248 330,285 300,262 270,285 280,248 250,225 288,225" fill="#f59e0b" opacity="0.55"/>
  <polygon points="300,200 309,225 338,225 315,242 322,272 300,255 278,272 285,242 262,225 291,225" fill="#f59e0b" opacity="0.35"/>

  <!-- Star cluster left -->
  <polygon points="120,220 126,238 145,238 130,248 135,266 120,256 105,266 110,248 95,238 114,238" fill="#ec4899" opacity="0.45"/>
  <polygon points="90,280 94,292 107,292 97,300 101,312 90,304 79,312 83,300 73,292 86,292" fill="#14b8a6" opacity="0.4"/>
  <polygon points="150,290 153,299 163,299 155,305 158,314 150,308 142,314 145,305 137,299 147,299" fill="#f59e0b" opacity="0.4"/>

  <!-- Star cluster right -->
  <polygon points="480,220 486,238 505,238 490,248 495,266 480,256 465,266 470,248 455,238 474,238" fill="#a855f7" opacity="0.45"/>
  <polygon points="510,280 514,292 527,292 517,300 521,312 510,304 499,312 503,300 493,292 506,292" fill="#f59e0b" opacity="0.4"/>
  <polygon points="450,290 453,299 463,299 455,305 458,314 450,308 442,314 445,305 437,299 447,299" fill="#ec4899" opacity="0.4"/>

  <!-- Hanging string lights left side -->
  <path d="M80,200 Q90,230 80,260 Q70,290 80,320 Q90,350 80,380 Q70,410 80,440" fill="none" stroke="#f59e0b" stroke-width="2" opacity="0.4"/>
  <circle cx="80" cy="220" r="7" fill="#f59e0b" opacity="0.5"/>
  <circle cx="78" cy="260" r="7" fill="#ec4899" opacity="0.5"/>
  <circle cx="82" cy="300" r="7" fill="#14b8a6" opacity="0.5"/>
  <circle cx="78" cy="340" r="7" fill="#a855f7" opacity="0.5"/>
  <circle cx="82" cy="380" r="7" fill="#f59e0b" opacity="0.5"/>
  <circle cx="78" cy="420" r="7" fill="#ec4899" opacity="0.5"/>

  <!-- Hanging string lights right side -->
  <path d="M520,200 Q510,230 520,260 Q530,290 520,320 Q510,350 520,380 Q530,410 520,440" fill="none" stroke="#f59e0b" stroke-width="2" opacity="0.4"/>
  <circle cx="520" cy="220" r="7" fill="#14b8a6" opacity="0.5"/>
  <circle cx="522" cy="260" r="7" fill="#f59e0b" opacity="0.5"/>
  <circle cx="518" cy="300" r="7" fill="#ec4899" opacity="0.5"/>
  <circle cx="522" cy="340" r="7" fill="#f59e0b" opacity="0.5"/>
  <circle cx="518" cy="380" r="7" fill="#a855f7" opacity="0.5"/>
  <circle cx="522" cy="420" r="7" fill="#14b8a6" opacity="0.5"/>

  <!-- Hanging paper lanterns center -->
  <!-- Lantern 1 -->
  <line x1="200" y1="160" x2="200" y2="200" stroke="#ec4899" stroke-width="1.5" opacity="0.4"/>
  <ellipse cx="200" cy="225" rx="22" ry="28" fill="#ec4899" opacity="0.35"/>
  <ellipse cx="200" cy="225" rx="16" ry="22" fill="#ec4899" opacity="0.2"/>
  <line x1="178" y1="225" x2="222" y2="225" stroke="#ec4899" stroke-width="1" opacity="0.3"/>

  <!-- Lantern 2 -->
  <line x1="300" y1="140" x2="300" y2="160" stroke="#14b8a6" stroke-width="1.5" opacity="0.4"/>
  <!-- (star is above, so lantern hangs below) -->

  <!-- Lantern 3 -->
  <line x1="400" y1="160" x2="400" y2="195" stroke="#a855f7" stroke-width="1.5" opacity="0.4"/>
  <ellipse cx="400" cy="220" rx="22" ry="28" fill="#a855f7" opacity="0.35"/>
  <ellipse cx="400" cy="220" rx="16" ry="22" fill="#a855f7" opacity="0.2"/>
  <line x1="378" y1="220" x2="422" y2="220" stroke="#a855f7" stroke-width="1" opacity="0.3"/>

  <!-- Vertical garland strands -->
  <!-- Strand 1 -->
  <circle cx="170" cy="320" r="10" fill="#ec4899" opacity="0.3"/>
  <circle cx="170" cy="345" r="10" fill="#14b8a6" opacity="0.3"/>
  <circle cx="170" cy="370" r="10" fill="#f59e0b" opacity="0.3"/>
  <circle cx="170" cy="395" r="10" fill="#a855f7" opacity="0.3"/>
  <circle cx="170" cy="420" r="10" fill="#ec4899" opacity="0.3"/>
  <line x1="170" y1="310" x2="170" y2="430" stroke="#f59e0b" stroke-width="1.5" opacity="0.25"/>

  <!-- Strand 2 -->
  <circle cx="430" cy="310" r="10" fill="#14b8a6" opacity="0.3"/>
  <circle cx="430" cy="335" r="10" fill="#f59e0b" opacity="0.3"/>
  <circle cx="430" cy="360" r="10" fill="#ec4899" opacity="0.3"/>
  <circle cx="430" cy="385" r="10" fill="#a855f7" opacity="0.3"/>
  <circle cx="430" cy="410" r="10" fill="#14b8a6" opacity="0.3"/>
  <line x1="430" y1="300" x2="430" y2="420" stroke="#ec4899" stroke-width="1.5" opacity="0.25"/>

  <!-- Tissue paper pom-poms / flower decorations -->
  <!-- Pom-pom 1 -->
  <circle cx="250" cy="350" r="30" fill="#ec4899" opacity="0.2"/>
  <circle cx="240" cy="340" r="14" fill="#ec4899" opacity="0.3"/>
  <circle cx="260" cy="340" r="14" fill="#ec4899" opacity="0.25"/>
  <circle cx="245" cy="358" r="14" fill="#ec4899" opacity="0.25"/>
  <circle cx="258" cy="356" r="14" fill="#ec4899" opacity="0.3"/>
  <circle cx="250" cy="348" r="8" fill="#f59e0b" opacity="0.4"/>

  <!-- Pom-pom 2 -->
  <circle cx="350" cy="370" r="28" fill="#14b8a6" opacity="0.2"/>
  <circle cx="340" cy="362" r="13" fill="#14b8a6" opacity="0.3"/>
  <circle cx="360" cy="362" r="13" fill="#14b8a6" opacity="0.25"/>
  <circle cx="345" cy="378" r="13" fill="#14b8a6" opacity="0.25"/>
  <circle cx="358" cy="376" r="13" fill="#14b8a6" opacity="0.3"/>
  <circle cx="350" cy="370" r="7" fill="#f59e0b" opacity="0.4"/>

  <!-- Bottom decorative wave -->
  <path d="M0,530 Q50,510 100,530 Q150,550 200,530 Q250,510 300,530 Q350,550 400,530 Q450,510 500,530 Q550,550 600,530 L600,600 L0,600Z" fill="#14b8a6" opacity="0.1"/>
  <path d="M0,550 Q50,530 100,550 Q150,570 200,550 Q250,530 300,550 Q350,570 400,550 Q450,530 500,550 Q550,570 600,550 L600,600 L0,600Z" fill="#a855f7" opacity="0.08"/>

  <!-- Scattered small stars -->
  <polygon points="300,440 302,446 308,446 303,450 305,456 300,452 295,456 297,450 292,446 298,446" fill="#f59e0b" opacity="0.45"/>
  <polygon points="230,470 232,476 238,476 233,480 235,486 230,482 225,486 227,480 222,476 228,476" fill="#f59e0b" opacity="0.4"/>
  <polygon points="370,460 372,466 378,466 373,470 375,476 370,472 365,476 367,470 362,466 368,466" fill="#f59e0b" opacity="0.4"/>
  <polygon points="150,480 152,486 158,486 153,490 155,496 150,492 145,496 147,490 142,486 148,486" fill="#f59e0b" opacity="0.35"/>
  <polygon points="450,480 452,486 458,486 453,490 455,496 450,492 445,496 447,490 442,486 448,486" fill="#f59e0b" opacity="0.35"/>

  <!-- Ribbon curls -->
  <path d="M200,450 Q210,440 220,450 Q230,460 240,450 Q250,440 260,450" fill="none" stroke="#ec4899" stroke-width="2.5" opacity="0.35" stroke-linecap="round"/>
  <path d="M340,490 Q350,480 360,490 Q370,500 380,490 Q390,480 400,490" fill="none" stroke="#a855f7" stroke-width="2.5" opacity="0.35" stroke-linecap="round"/>
  <path d="M100,510 Q110,500 120,510 Q130,520 140,510" fill="none" stroke="#14b8a6" stroke-width="2.5" opacity="0.3" stroke-linecap="round"/>
  <path d="M460,510 Q470,500 480,510 Q490,520 500,510" fill="none" stroke="#f59e0b" stroke-width="2.5" opacity="0.3" stroke-linecap="round"/>
</svg>