<svg xmlns="http://www.w3.org/2000/svg" viewBox="0 0 600 600" width="600" height="600">
  <defs>
    <linearGradient id="bg" x1="0" y1="0" x2="1" y2="1">
      <stop offset="0%" stop-color="#fffef7"/>
      <stop offset="50%" stop-color="#fdf4ff"/>
      <stop offset="100%" stop-color="#ecfdf5"/>
    </linearGradient>
    <linearGradient id="grass" x1="0" y1="0" x2="0" y2="1">
      <stop offset="0%" stop-color="#14b8a6" stop-opacity="0.25"/>
      <stop offset="100%" stop-color="#14b8a6" stop-opacity="0.1"/>
    </linearGradient>
  </defs>

  <!-- Background -->
  <rect width="600" height="600" fill="url(#bg)"/>

  <!-- Ground/grass area -->
  <ellipse cx="300" cy="520" rx="320" ry="100" fill="url(#grass)"/>

  <!-- Sun -->
  <circle cx="520" cy="80" r="45" fill="#f59e0b" opacity="0.3"/>
  <circle cx="520" cy="80" r="30" fill="#f59e0b" opacity="0.45"/>
  <!-- Sun rays -->
  <line x1="520" y1="25" x2="520" y2="10" stroke="#f59e0b" stroke-width="3" opacity="0.3" stroke-linecap="round"/>
  <line x1="560" y1="40" x2="572" y2="28" stroke="#f59e0b" stroke-width="3" opacity="0.3" stroke-linecap="round"/>
  <line x1="575" y1="80" x2="590" y2="80" stroke="#f59e0b" stroke-width="3" opacity="0.3" stroke-linecap="round"/>
  <line x1="560" y1="120" x2="572" y2="132" stroke="#f59e0b" stroke-width="3" opacity="0.3" stroke-linecap="round"/>
  <line x1="480" y1="40" x2="468" y2="28" stroke="#f59e0b" stroke-width="3" opacity="0.3" stroke-linecap="round"/>
  <line x1="465" y1="80" x2="450" y2="80" stroke="#f59e0b" stroke-width="3" opacity="0.3" stroke-linecap="round"/>

  <!-- Clouds -->
  <ellipse cx="120" cy="70" rx="50" ry="22" fill="#fffef7" opacity="0.7"/>
  <ellipse cx="100" cy="62" rx="30" ry="18" fill="#fffef7" opacity="0.7"/>
  <ellipse cx="145" cy="60" rx="35" ry="20" fill="#fffef7" opacity="0.7"/>

  <ellipse cx="350" cy="50" rx="40" ry="18" fill="#fffef7" opacity="0.6"/>
  <ellipse cx="335" cy="42" rx="25" ry="15" fill="#fffef7" opacity="0.6"/>
  <ellipse cx="370" cy="44" rx="28" ry="16" fill="#fffef7" opacity="0.6"/>

  <!-- Child 1 (left, jumping) - girl with pigtails -->
  <!-- Body -->
  <rect x="100" y="320" width="28" height="50" rx="10" fill="#ec4899" opacity="0.75"/>
  <!-- Head -->
  <circle cx="114" cy="300" r="24" fill="#fde68a" opacity="0.9"/>
  <!-- Pigtails -->
  <circle cx="92" cy="290" r="10" fill="#92400e" opacity="0.5"/>
  <circle cx="136" cy="290" r="10" fill="#92400e" opacity="0.5"/>
  <!-- Hair -->
  <path d="M95,295 Q114,275 133,295" fill="#92400e" opacity="0.4"/>
  <!-- Eyes -->
  <circle cx="107" cy="298" r="2.5" fill="#6b21a8"/>
  <circle cx="121" cy="298" r="2.5" fill="#6b21a8"/>
  <!-- Happy smile -->
  <path d="M106,308 Q114,318 122,308" fill="none" stroke="#6b21a8" stroke-width="2" stroke-linecap="round"/>
  <!-- Arms up (celebrating) -->
  <line x1="100" y1="330" x2="72" y2="300" stroke="#fde68a" stroke-width="6" stroke-linecap="round"/>
  <line x1="128" y1="330" x2="156" y2="300" stroke="#fde68a" stroke-width="6" stroke-linecap="round"/>
  <!-- Legs (jumping pose) -->
  <line x1="108" y1="370" x2="90" y2="410" stroke="#a855f7" stroke-width="7" stroke-linecap="round"/>
  <line x1="120" y1="370" x2="138" y2="410" stroke="#a855f7" stroke-width="7" stroke-linecap="round"/>
  <!-- Shoes -->
  <ellipse cx="85" cy="414" rx="12" ry="6" fill="#ec4899" opacity="0.7"/>
  <ellipse cx="143" cy="414" rx="12" ry="6" fill="#ec4899" opacity="0.7"/>

  <!-- Child 2 (center-left, dancing) - boy -->
  <!-- Body -->
  <rect x="218" y="340" width="30" height="55" rx="10" fill="#14b8a6" opacity="0.75"/>
  <!-- Head -->
  <circle cx="233" cy="318" r="26" fill="#fde68a" opacity="0.9"/>
  <!-- Hair -->
  <path d="M210,310 Q233,285 256,310" fill="#78350f" opacity="0.5"/>
  <!-- Eyes -->
  <circle cx="225" cy="316" r="2.5" fill="#6b21a8"/>
  <circle cx="241" cy="316" r="2.5" fill="#6b21a8"/>
  <!-- Open mouth smile -->
  <ellipse cx="233" cy="328" rx="7" ry="5" fill="#6b21a8" opacity="0.7"/>
  <!-- Arms out dancing -->
  <line x1="218" y1="355" x2="185" y2="340" stroke="#fde68a" stroke-width="6" stroke-linecap="round"/>
  <line x1="248" y1="355" x2="280" y2="335" stroke="#fde68a" stroke-width="6" stroke-linecap="round"/>
  <!-- Legs -->
  <line x1="227" y1="395" x2="215" y2="445" stroke="#f59e0b" stroke-width="7" stroke-linecap="round"/>
  <line x1="239" y1="395" x2="255" y2="440" stroke="#f59e0b" stroke-width="7" stroke-linecap="round"/>
  <!-- Shoes -->
  <ellipse cx="210" cy="449" rx="12" ry="6" fill="#14b8a6" opacity="0.7"/>
  <ellipse cx="260" cy="444" rx="12" ry="6" fill="#14b8a6" opacity="0.7"/>

  <!-- Child 3 (center, arms up) - girl with bow -->
  <!-- Body -->
  <rect x="325" y="310" width="30" height="55" rx="10" fill="#f59e0b" opacity="0.7"/>
  <!-- Head -->
  <circle cx="340" cy="288" r="25" fill="#fde68a" opacity="0.9"/>
  <!-- Hair long -->
  <path d="M318,280 Q340,260 362,280 L365,310 Q340,305 315,310Z" fill="#92400e" opacity="0.4"/>
  <!-- Bow -->
  <polygon points="340,265 332,258 340,270 348,258" fill="#ec4899" opacity="0.8"/>
  <circle cx="340" cy="265" r="3" fill="#ec4899" opacity="0.9"/>
  <!-- Eyes -->
  <circle cx="333" cy="286" r="2.5" fill="#6b21a8"/>
  <circle cx="347" cy="286" r="2.5" fill="#6b21a8"/>
  <!-- Smile -->
  <path d="M332,296 Q340,305 348,296" fill="none" stroke="#6b21a8" stroke-width="2" stroke-linecap="round"/>
  <!-- Arms reaching up -->
  <line x1="325" y1="325" x2="298" y2="290" stroke="#fde68a" stroke-width="6" stroke-linecap="round"/>
  <line x1="355" y1="325" x2="382" y2="290" stroke="#fde68a" stroke-width="6" stroke-linecap="round"/>
  <!-- Skirt -->
  <polygon points="325,360 340,365 355,360 365,400 315,400" fill="#ec4899" opacity="0.5"/>
  <!-- Legs -->
  <line x1="332" y1="400" x2="325" y2="445" stroke="#fde68a" stroke-width="6" stroke-linecap="round"/>
  <line x1="348" y1="400" x2="355" y2="445" stroke="#fde68a" stroke-width="6" stroke-linecap="round"/>
  <!-- Shoes -->
  <ellipse cx="320" cy="449" rx="12" ry="6" fill="#a855f7" opacity="0.7"/>
  <ellipse cx="360" cy="449" rx="12" ry="6" fill="#a855f7" opacity="0.7"/>

  <!-- Child 4 (right, waving) - boy with cap -->
  <!-- Body -->
  <rect x="455" y="335" width="30" height="50" rx="10" fill="#a855f7" opacity="0.7"/>
  <!-- Head -->
  <circle cx="470" cy="314" r="24" fill="#fde68a" opacity="0.9"/>
  <!-- Cap -->
  <path d="M448,308 Q470,290 492,308" fill="#14b8a6" opacity="0.7"/>
  <rect x="445" y="305" width="50" height="6" rx="3" fill="#14b8a6" opacity="0.8"/>
  <rect x="488" y="302" width="18" height="7" rx="2" fill="#14b8a6" opacity="0.6"/>
  <!-- Eyes -->
  <circle cx="463" cy="313" r="2.5" fill="#6b21a8"/>
  <circle cx="477" cy="313" r="2.5" fill="#6b21a8"/>
  <!-- Smile -->
  <path d="M462,323 Q470,330 478,323" fill="none" stroke="#6b21a8" stroke-width="2" stroke-linecap="round"/>
  <!-- Arm waving -->
  <line x1="455" y1="345" x2="430" y2="360" stroke="#fde68a" stroke-width="6" stroke-linecap="round"/>
  <line x1="485" y1="345" x2="515" y2="305" stroke="#fde68a" stroke-width="6" stroke-linecap="round"/>
  <!-- Hand wave lines -->
  <line x1="520" y1="295" x2="530" y2="288" stroke="#f59e0b" stroke-width="2" opacity="0.5" stroke-linecap="round"/>
  <line x1="522" y1="302" x2="533" y2="300" stroke="#f59e0b" stroke-width="2" opacity="0.5" stroke-linecap="round"/>
  <!-- Legs -->
  <line x1="463" y1="385" x2="455" y2="435" stroke="#14b8a6" stroke-width="7" stroke-linecap="round"/>
  <line x1="477" y1="385" x2="488" y2="435" stroke="#14b8a6" stroke-width="7" stroke-linecap="round"/>
  <!-- Shoes -->
  <ellipse cx="450" cy="439" rx="12" ry="6" fill="#f59e0b" opacity="0.7"/>
  <ellipse cx="493" cy="439" rx="12" ry="6" fill="#f59e0b" opacity="0.7"/>

  <!-- Confetti pieces -->
  <rect x="50" y="150" width="10" height="10" rx="2" fill="#ec4899" opacity="0.5" transform="rotate(30,55,155)"/>
  <rect x="150" y="130" width="8" height="8" rx="1" fill="#f59e0b" opacity="0.5" transform="rotate(-20,154,134)"/>
  <rect x="250" y="110" width="10" height="10" rx="2" fill="#14b8a6" opacity="0.45" transform="rotate(45,255,115)"/>
  <rect x="380" y="130" width="9" height="9" rx="2" fill="#a855f7" opacity="0.5" transform="rotate(-35,384,134)"/>
  <rect x="480" y="160" width="8" height="8" rx="1" fill="#ec4899" opacity="0.45" transform="rotate(15,484,164)"/>
  <rect x="100" y="200" width="8" height="8" rx="1" fill="#a855f7" opacity="0.4" transform="rotate(-10,104,204)"/>
  <rect x="500" y="220" width="10" height="10" rx="2" fill="#f59e0b" opacity="0.4" transform="rotate(50,505,225)"/>

  <!-- Circle confetti -->
  <circle cx="70" cy="250" r="5" fill="#14b8a6" opacity="0.4"/>
  <circle cx="180" cy="170" r="6" fill="#ec4899" opacity="0.35"/>
  <circle cx="300" cy="160" r="5" fill="#f59e0b" opacity="0.4"/>
  <circle cx="420" cy="180" r="6" fill="#a855f7" opacity="0.35"/>
  <circle cx="540" cy="260" r="5" fill="#ec4899" opacity="0.4"/>
  <circle cx="200" cy="230" r="4" fill="#f59e0b" opacity="0.35"/>
  <circle cx="400" cy="240" r="5" fill="#14b8a6" opacity="0.35"/>

  <!-- Star confetti -->
  <polygon points="320,180 322,186 328,186 323,190 325,196 320,192 315,196 317,190 312,186 318,186" fill="#f59e0b" opacity="0.5"/>
  <polygon points="160" cy="250" fill="#f59e0b" opacity="0.4"/>
  <polygon points="80,170 82,176 88,176 83,180 85,186 80,182 75,186 77,180 72,176 78,176" fill="#f59e0b" opacity="0.45"/>
  <polygon points="460,140 462,146 468,146 463,150 465,156 460,152 455,156 457,150 452,146 458,146" fill="#f59e0b" opacity="0.45"/>

  <!-- Balloons floating -->
  <!-- Balloon 1 -->
  <ellipse cx="55" cy="90" rx="22" ry="28" fill="#ec4899" opacity="0.5"/>
  <line x1="55" y1="118" x2="60" y2="170" stroke="#ec4899" stroke-width="1.5" opacity="0.4"/>
  <!-- Balloon 2 -->
  <ellipse cx="180" cy="60" rx="20" ry="26" fill="#a855f7" opacity="0.45"/>
  <line x1="180" y1="86" x2="175" y2="130" stroke="#a855f7" stroke-width="1.5" opacity="0.4"/>
  <!-- Balloon 3 -->
  <ellipse cx="430" cy="70" rx="22" ry="28" fill="#14b8a6" opacity="0.45"/>
  <line x1="430" y1="98" x2="435" y2="140" stroke="#14b8a6" stroke-width="1.5" opacity="0.4"/>
  <!-- Balloon 4 -->
  <ellipse cx="560" cy="110" rx="18" ry="24" fill="#f59e0b" opacity="0.45"/>
  <line x1="560" y1="134" x2="555" y2="175" stroke="#f59e0b" stroke-width="1.5" opacity="0.4"/>

  <!-- Party hat on ground -->
  <polygon points="30,480 50,430 70,480" fill="#f59e0b" opacity="0.3"/>
  <circle cx="50" cy="428" r="5" fill="#ec4899" opacity="0.4"/>
  <rect x="30" y="477" width="40" height="5" rx="2" fill="#f59e0b" opacity="0.25"/>
</svg>